<svg width="155" height="155" viewBox="0 0 155 155" fill="none" xmlns="http://www.w3.org/2000/svg">
<path d="M9.73369 142.248C12.7353 144.496 24.8913 145.174 57.6877 145.104C51.0762 143.924 52.3246 142.325 51.866 128.533C50.6308 129.052 44.4794 131.399 44.4794 131.399C44.2386 138.553 44.8253 142.343 40.6966 141.712C38.2594 141.343 28.3074 128.841 25.539 124.967C15.7754 111.302 17.6406 110.412 18.1378 109.802C18.7168 109.095 26.3674 103.612 32.1512 100.046C34.7761 97.8417 43.5553 85.4827 43.5553 85.4827C44.7211 83.6469 44.4879 80.7209 41.2764 77.6522C40.3963 78.4868 38.6955 79.8409 37.5707 80.8337C38.5489 84.9037 37.1075 86.8368 34.7915 87.8373C33.0236 88.597 32.3983 88.2233 31.1507 86.9649C20.6568 93.8628 12.8541 83.4593 13.481 74.9818C13.9249 68.9787 21.7021 60.5615 21.7631 60.5167C25.1998 57.1984 28.826 54.0822 32.6237 51.1839C39.7856 45.9783 53.603 50.5594 55.1756 50.8682C56.349 45.1623 61.005 43.7727 61.9152 41.7045C64.0884 36.7636 68.3761 31.6776 74.3337 29.4658C79.7378 27.4586 87.2494 27.1043 95.6751 30.1051C101.474 32.174 110.02 37.8985 112.133 42.7806C113.156 45.1422 114.458 49.1366 116.766 51.5815C119.203 54.1693 125.935 65.7309 120.91 68.612C119.225 69.5747 117.887 67.664 116.856 68.409C114.592 70.0557 119.255 76.1646 116.066 78.3833C114.381 79.5568 112.5 77.4654 111.417 78.3061C110.334 79.1468 112.498 84.6551 106.227 85.468C106.723 86.1744 107.771 88.0102 108.157 88.6641C103.478 91.9289 99.1244 95.5103 89.5917 101.889C89.0961 103.69 88.1957 105.355 86.9591 106.756C86.411 127.802 86.9514 119.88 83.8001 133.964C90.2317 138.545 92.7662 140.802 88.3958 144.909C110.918 144.405 134.981 145.157 141.812 144.57C152.027 143.697 151.214 134.25 149.492 67.166C149.063 50.2035 107.142 25.297 95.4744 15.3381C83.807 5.37921 70.9871 7.62884 57.5148 19.3332C46.4573 28.9501 5.03989 56.185 4.56587 68.988C3.15928 106.614 3.37698 137.486 9.73369 142.248Z" fill="#3D9CFB"/>
<path d="M127.908 125.914C135.054 131.082 137.544 133.143 139.778 134.792C141.064 135.748 143.246 134.996 138.259 131.054C118.174 115.476 97.4805 103.628 90.2591 102.597C96.1943 97.6021 104.762 92.6752 114.458 85.8298C122.733 79.9927 127.939 74.3439 137.364 72.681C138.599 72.4633 138.996 71.0188 137.755 70.7857C127.873 71.1717 119.213 80.9855 108.237 87.4248C107.944 86.943 107.619 86.4397 107.267 85.9279C113.555 85.1983 110.261 77.8218 112.908 79.1049C122.612 81.9559 114.24 67.7239 117.911 69.0031C119.46 70.0932 122.741 69.2131 123.094 66.1745C124.049 57.9449 116.324 51.7688 113.931 45.5712C112.006 41.0503 110.134 36.1064 97.3222 30.4136C81.0182 23.1683 69.242 27.0808 62.216 39.1921C60.1547 43.5848 56.0777 44.5251 54.5438 49.7307C35.2637 43.4867 28.2453 51.9194 16.2893 66.6184C15.5158 65.9667 14.6017 65.5031 13.6189 65.2643C13.371 65.2318 13.1201 65.2962 12.9185 65.4441C12.7169 65.5919 12.58 65.8118 12.5365 66.058C12.4929 66.3042 12.546 66.5577 12.6846 66.7658C12.8232 66.9739 13.0368 67.1204 13.2807 67.175C14.0078 67.3789 14.6774 67.7489 15.237 68.2558C6.99197 78.4185 19.5541 95.6289 31.2176 88.047C35.039 91.3666 40.0339 86.9261 38.5895 81.4572C39.6201 80.54 40.4847 79.7649 41.2822 78.9821C44.3286 81.969 43.4191 83.0668 42.2604 84.9551C40.4253 87.9412 33.3089 97.4115 30.9242 99.458C24.139 103.911 20.6712 105.807 16.8273 109.794C16.3989 110.328 15.105 111.381 22.3487 122.078C19.5872 124.179 17.2578 126.795 15.4887 129.78C14.6395 131.36 16.1063 132.706 17.3315 130.796C18.9936 128.193 21.5775 125.267 23.6619 123.988C30.5745 133.624 45.4912 155.657 45.2009 132.376C46.9835 131.638 49.3983 130.66 50.9099 130.006C51.6248 143.439 46.8631 145.667 66.5114 145.321C71.9927 145.344 81.8342 145.066 88.2048 144.983C89.9426 144.96 91.123 143.381 91.394 141.817C91.8302 139.245 90.7169 138.116 84.8721 133.874C87.1595 123.538 88.0373 124.005 87.9192 106.568C88.4019 105.892 88.7844 105.15 89.0548 104.364C92.8616 104.109 108.17 111.639 127.908 125.914ZM90.4097 100.075C91.7406 95.4259 93.1627 90.2279 95.8709 84.827C97.7869 83.8872 99.5393 82.6454 101.061 81.1491C103.102 83.4698 104.968 85.9388 106.643 88.5357C100.091 93.0967 93.9748 97.4447 90.4097 100.077V100.075ZM61.1105 50.7313C64.3073 47.4441 67.2093 49.0684 69.7569 46.9855C82.658 36.3935 85.8772 44.7212 95.0394 53.3159C92.4818 53.5861 91.421 55.7678 93.0608 55.994C94.1068 56.1438 94.5584 54.5867 97.8225 55.5424C100.026 57.1966 102.316 58.731 104.684 60.1389C111.756 68.3462 98.1413 87.1592 86.5257 84.2781C72.5825 80.8187 59.4105 72.4911 58.4625 60.7511C58.0263 55.4027 59.087 52.8149 61.1105 50.7313ZM68.2037 78.5127C73.2364 82.1113 78.953 84.6407 85.001 85.9448C84.2336 87.7799 83.308 89.9461 82.556 91.7665C78.7948 90.17 68.7086 85.379 65.8568 83.3856C66.6164 81.7505 67.3987 80.126 68.2037 78.5127ZM62.3009 86.5416C60.1918 91.5218 58.7126 94.6477 56.5155 94.8237C55.1467 94.9287 52.0703 94.1845 51.4681 91.5141C51.0049 89.4451 59.6151 77.0637 61.5706 72.4903C63.0972 74.2606 64.7929 75.8779 66.6334 77.3192C64.8786 80.7901 63.4018 83.9399 62.3009 86.5416ZM37.206 80.1177C36.7999 80.4265 36.3939 80.8774 36.5822 81.4263C37.9055 85.2477 34.8514 89.1741 32.2636 86.2482C30.3985 84.6687 27.0734 90.2627 21.5073 87.1584C22.1249 85.7295 25.1851 84.2626 23.9445 82.6901C22.1913 81.918 20.9954 85.135 19.8444 86.1432C18.4611 85.1138 17.287 83.8299 16.385 82.3604C17.2195 81.383 18.4385 79.9988 19.2352 79.0585C19.401 78.8617 19.4822 78.6074 19.4611 78.3509C19.44 78.0945 19.3183 77.8568 19.1225 77.6898C17.5129 76.7942 16.5649 79.6599 15.4069 80.5253C12.3675 73.0477 17.6403 67.5556 24.1552 60.2216C28.646 62.5685 38.2969 72.9334 40.1551 77.4095C39.2951 78.2472 38.3555 79.0902 37.2045 80.1208L37.206 80.1177ZM25.5827 58.8026C27.712 56.75 29.9574 54.8211 32.3076 53.0257C36.6934 58.0051 43.9974 65.8657 45.81 71.6434C46.4423 72.9666 43.125 74.848 41.6505 76.0438C39.1407 71.0243 30.4795 61.7362 25.5827 58.8026ZM42.7112 77.6759C44.8172 75.908 48.5854 74.2458 47.6605 71.086C45.7421 64.9486 38.3687 56.9668 33.891 51.8893C40.2022 47.4062 49.5002 49.7755 54.1786 51.6492C52.9828 58.2684 57.3909 65.3245 60.2265 70.778C58.4887 74.8171 53.8629 82.0995 51.6063 86.3115C49.2947 85.5502 47.1518 84.3499 45.2951 82.7765C45.4264 81.3468 44.8172 79.7595 42.7112 77.6759ZM41.6952 140.554C36.1291 141.051 19.1434 114.505 18.4439 110.909C18.9023 110.39 19.4005 109.907 19.9339 109.465C26.2373 117.551 37.7464 125.262 43.2678 132.007C43.2223 139.487 42.8911 139.975 41.6952 140.554ZM89.4825 141.495C88.8132 144 84.6011 143.473 78.6281 143.51C69.2868 143.578 55.0981 144.519 53.5185 142.089C53.1866 141.51 53.0131 140.854 53.0152 140.186C61.7782 139.426 76.0859 135.289 83.45 135.245C89.5072 139.636 89.8307 140.208 89.484 141.495H89.4825ZM83.0208 133.288C75.425 133.521 61.7605 137.417 52.9187 138.245C52.8206 135.296 52.8739 131.972 52.8415 129.151C57.753 126.835 59.2731 125.247 63.8688 117.965C65.7718 114.948 67.2386 112.955 66.4937 112.452C65.1473 111.541 63.9669 114.182 62.2669 116.867C58.9666 122.088 58.1297 124.073 54.7491 126.086C52.6894 127.313 49.6855 128.55 44.6042 130.534C38.8651 123.758 27.7922 116.288 21.444 108.247C23.7986 106.418 27.4919 103.951 32.1332 101.002C35.3825 98.0684 42.597 88.4253 44.6574 84.7397C46.4687 86.1797 48.5146 87.2966 50.7053 88.0416C47.6744 93.6834 53.6313 97.3621 58.3258 96.5715C60.3037 96.2403 63.0876 89.5686 65.0508 85.1682C68.6236 87.522 78.2297 92.0283 81.825 93.5553C77.7256 102.545 77.6561 107.156 85.9938 107.652C86.1065 123.768 85.0373 124.13 83.0223 133.288H83.0208ZM86.511 104.959C85.2627 106.554 80.9974 105.673 80.501 102.822C80.02 100.069 85.1577 90.7645 86.9627 86.2737C89.0645 86.5744 91.2065 86.4204 93.2437 85.8221C88.736 95.754 88.509 102.397 86.5126 104.959H86.511Z" fill="#001434"/>
<path d="M77.8476 45.6692C78.7665 45.4876 79.7156 45.531 80.6141 45.7955C81.5126 46.0601 82.3338 46.538 83.0077 47.1885C83.8422 48.1296 85.1369 46.926 84.4367 45.8761C82.7383 43.3408 76.9482 42.5441 76.7166 44.8833C76.6664 45.4214 77.3134 45.7595 77.8476 45.6692Z" fill="#001434"/>
<path d="M74.8536 61.2928C83.1202 63.0985 88.7844 49.776 78.5592 47.5047C68.73 45.323 65.2853 59.3597 74.8536 61.2928ZM71.1827 53.4546C74.3718 53.9888 78.5245 54.6203 82.0216 54.9438C81.0065 61.4657 69.9189 60.5787 71.1827 53.4546Z" fill="#001434"/>
<path d="M80.9466 64.3169C80.9566 64.5676 81.0632 64.8047 81.2441 64.9785C81.425 65.1523 81.6661 65.2494 81.917 65.2494C82.1679 65.2494 82.409 65.1523 82.5899 64.9785C82.7708 64.8047 82.8774 64.5676 82.8874 64.3169C82.8622 64.0133 82.9125 63.7082 83.0337 63.4287C83.1549 63.1492 83.3434 62.9041 83.5822 62.715C84.643 61.9623 85.8388 62.8802 86.4626 61.7222C87.057 60.6159 84.1157 59.7513 82.0853 61.5261C81.6868 61.8669 81.3756 62.2979 81.1775 62.7834C80.9794 63.2689 80.9002 63.7946 80.9466 64.3169Z" fill="#001434"/>
<path d="M95.5321 72.6891C104.399 73.384 107.253 60.0653 97.4351 58.434C87.3264 56.7541 85.2767 71.8855 95.5321 72.6891ZM90.7256 64.2418C93.8622 64.7684 98.0527 65.423 101.64 65.7689C101.128 73.1408 88.9276 71.8392 90.7256 64.2418Z" fill="#001434"/>
<path d="M78.5314 67.6193C78.2811 67.5891 78.029 67.6576 77.8283 67.8101C77.6276 67.9626 77.4941 68.1872 77.4561 68.4364C77.418 68.6855 77.4785 68.9397 77.6246 69.1451C77.7706 69.3506 77.9909 69.4911 78.2388 69.5369C82.7597 70.2063 82.4431 71.4253 82.7597 72.1023C83.1279 72.8921 84.8726 72.9299 84.6125 71.4075C84.3523 69.8851 83.263 67.9651 78.5314 67.6193Z" fill="#001434"/>
<path d="M85.3019 98.9863C82.3606 97.9634 80.6004 102.229 84.1733 103.232C87.2273 104.102 88.0858 99.9567 85.3019 98.9863Z" fill="#001434"/>
<path d="M57.2056 88.1769C56.9558 88.0081 56.6738 87.8928 56.3773 87.8382C56.0808 87.7836 55.7762 87.7909 55.4827 87.8596C55.1891 87.9284 54.9129 88.0572 54.6715 88.2378C54.4301 88.4184 54.2287 88.647 54.0799 88.9092C53.9311 89.1715 53.8381 89.4616 53.8068 89.7615C53.7756 90.0614 53.8066 90.3645 53.8981 90.6517C53.9896 90.939 54.1395 91.2043 54.3385 91.4308C54.5374 91.6574 54.781 91.8404 55.0541 91.9682C55.3039 92.1371 55.5859 92.2524 55.8824 92.307C56.1789 92.3616 56.4835 92.3543 56.777 92.2855C57.0706 92.2168 57.3467 92.088 57.5881 91.9074C57.8296 91.7268 58.031 91.4982 58.1798 91.2359C58.3286 90.9737 58.4216 90.6836 58.4528 90.3837C58.4841 90.0838 58.453 89.7807 58.3616 89.4934C58.2701 89.2062 58.1202 88.9409 57.9212 88.7143C57.7223 88.4878 57.4787 88.3048 57.2056 88.1769Z" fill="#001434"/>
</svg>
