<svg width="155" height="155" viewBox="0 0 155 155" fill="none" xmlns="http://www.w3.org/2000/svg">
<path d="M30.0234 117.345C29.6838 116.21 25.5921 115.153 24.3801 114.651C23.168 114.149 22.45 114.751 22.2648 116.056C22.45 116.72 18.9529 133.272 20.2112 133.21L22.7974 133.982C25.0517 134.268 23.3996 130.122 25.3451 130.5L32.1233 132.183C32.4756 132.224 32.8106 132.358 33.0942 132.571C33.3777 132.784 33.5995 133.068 33.7368 133.395C35.9679 138.027 35.1882 137.896 40.4301 139.309C41.9278 139.741 42.2598 138.915 41.6113 138.05L30.0234 117.345ZM30.587 128.57C26.727 127.497 25.376 127.335 25.0672 126.509C24.7583 125.683 25.6539 123.946 25.9241 119.46C26.92 118.472 29.6066 125.637 31.0193 127.868C31.3281 128.539 31.0348 128.701 30.587 128.601V128.57Z" fill="#3D9CFB"/>
<path d="M90.171 41.2716C90.0805 40.1649 90.0521 39.0541 90.086 37.9442C90.7036 26.8582 87.77 24.5268 99.2806 27.5376C111.949 29.8073 110.784 26.7656 109.988 38.3071C108.813 37.3685 107.341 36.8809 105.838 36.9322C104.334 36.9834 102.899 37.5702 101.79 38.5867C100.682 39.6031 99.9727 40.9823 99.7913 42.4755C99.61 43.9686 99.9683 45.4774 100.801 46.7297C100.237 46.7187 99.6761 46.633 99.134 46.4749C99.7485 47.2709 100.417 48.0241 101.133 48.7292L102.6 48.9608C107.827 50.1497 111.424 49.5398 111.725 43.9891C111.872 41.3025 111.88 37.5196 112.189 34.3235C112.026 31.0348 113.794 28.657 109.726 27.2133C92.1087 25.7388 86.9903 17.3625 88.1714 37.9134C88.2013 38.7633 88.1755 39.6144 88.0943 40.461C88.8616 40.4718 89.5992 40.7597 90.171 41.2716ZM110.112 43.7652C109.71 47.7487 107.796 47.8723 103.936 47.216C100.176 45.1007 101.558 38.2994 106.198 38.9556C109.448 39.4188 110.398 41.0168 110.112 43.7652Z" fill="#3D9CFB"/>
<path d="M48.0811 33.5359C51.7552 32.7027 55.5017 32.2295 59.2675 32.1231C59.5095 32.1015 59.7347 31.99 59.8987 31.8107C60.0627 31.6314 60.1537 31.3972 60.1537 31.1542C60.1537 30.9112 60.0627 30.677 59.8987 30.4977C59.7347 30.3184 59.5095 30.207 59.2675 30.1854C51.6787 30.1854 45.4177 32.594 37.7285 33.119C37.602 33.1278 37.4785 33.1616 37.3651 33.2185C37.2518 33.2754 37.1508 33.3543 37.0682 33.4506C36.9856 33.5468 36.923 33.6585 36.8839 33.7792C36.8449 33.8999 36.8302 34.0271 36.8407 34.1535C38.13 36.4695 45.9041 33.4896 48.0811 33.5359Z" fill="#3D9CFB"/>
<path d="M23.9324 46.8532C36.547 47.5789 36.2304 26.5031 23.392 28.4331C10.9163 29.429 12.2905 47.6098 23.9324 46.8532ZM24.3879 44.9155C22.7675 45.0358 21.1445 44.7213 19.6863 44.0045C20.1187 42.0822 22.5119 41.3951 23.2839 40.1445C23.0291 38.7163 20.9679 37.6509 21.7399 36.0683C21.9638 34.2618 25.6462 33.2119 26.3719 35.0338C28.0703 40.4378 21.6009 38.3457 29.6529 42.6689C28.9755 43.3834 28.1587 43.9513 27.2532 44.3377C26.3476 44.7241 25.3724 44.9208 24.3879 44.9155ZM23.5464 30.3631C29.5217 29.2283 33.127 35.7672 30.6952 41.0323C29.8151 40.3529 28.856 39.7826 27.8387 39.3339C32.548 29.043 15.3245 30.6642 20.7594 39.7044C19.6538 40.4863 18.7512 41.5213 18.1269 42.723C15.3863 38.8938 15.3785 31.4594 23.5464 30.3631Z" fill="#3D9CFB"/>
<path d="M75.842 102.824C73.6109 98.5468 77.7875 91.6991 77.7875 91.6991C77.7875 91.6991 76.2435 91.645 68.6392 91.5292C53.3535 90.4484 51.0374 80.4818 51.0374 80.4818C51.0374 80.4818 50.2654 80.4818 48.1887 79.262C40.4686 81.578 30.8031 91.1741 30.5484 91.2436C22.975 93.3589 17.7639 94.7099 14.4211 94.3316C11.9275 94.0383 10.9703 93.0346 10.839 83.5776C10.4839 63.8219 11.4566 48.1347 10.6151 28.2246C17.2158 26.117 58.4101 21.1299 70.7854 18.8293C71.0324 26.3255 71.1559 32.0847 71.0865 39.6735C74.8924 45.6411 72.2676 19.7943 72.7077 17.9415C72.9393 5.92905 70.9784 6.67018 58.6726 8.43036C46.3668 10.1905 32.903 12.2132 20.381 13.7418C11.7191 15.0001 8.19103 17.1849 8.64651 27.4835C9.54976 47.7332 9.04796 63.5517 8.90128 83.6007C8.76232 102.376 17.7871 95.9528 31.0733 93.1118C33.2813 90.9734 36.5546 91.012 39.0559 91.4675C44.2356 92.4476 48.819 95.4329 51.8094 99.7743C49.2078 108.197 49.3853 120.155 49.3853 120.155C49.3853 120.155 77.1776 119.738 98.2766 119.738C89.8076 117.646 78.0731 107.093 75.842 102.824ZM20.6281 15.6563C28.7187 14.6064 39.604 13.2863 47.409 12.0356C53.5851 11.5879 65.281 8.24508 69.8821 9.93577C70.5846 10.646 70.6541 13.4638 70.7545 16.8838C67.2264 17.486 52.952 19.9178 45.5021 20.6976C30.008 22.2956 14.7531 25.3682 10.5534 26.2483C10.4144 18.3893 12.8617 16.7912 20.6281 15.6563Z" fill="#3D9CFB"/>
<path d="M48.976 27.3136C48.6132 25.484 41.1633 27.1515 39.7505 27.4912C38.8241 28.186 35.8364 27.4294 35.6434 29.1587C35.6513 29.2852 35.6841 29.4089 35.7401 29.5226C35.7961 29.6363 35.8742 29.7378 35.9697 29.8211C36.0652 29.9044 36.1763 29.9679 36.2966 30.0079C36.4168 30.0479 36.5438 30.0637 36.6702 30.0542C39.3105 29.8998 40.345 29.1278 42.6919 28.8036C44.2822 28.2014 48.6363 29.5061 48.976 27.3136Z" fill="#3D9CFB"/>
<path d="M39.2496 39.102C39.1222 39.101 38.9959 39.1252 38.8779 39.1733C38.7599 39.2213 38.6527 39.2922 38.5622 39.3819C38.4718 39.4717 38.4 39.5784 38.351 39.696C38.3021 39.8135 38.2769 39.9397 38.2769 40.0671C38.6783 42.0202 41.5965 40.5689 42.8163 40.4376C44.0746 39.6656 46.5296 40.5997 46.8616 38.8936C46.8626 38.7656 46.8381 38.6386 46.7896 38.5201C46.7411 38.4017 46.6695 38.294 46.579 38.2035C46.4884 38.113 46.3808 38.0413 46.2623 37.9928C46.1438 37.9443 46.0169 37.9198 45.8888 37.9209C43.5342 37.9363 41.5116 39.0712 39.2496 39.102Z" fill="#3D9CFB"/>
<path d="M16.0731 85.299C20.0567 86.7581 27.4139 84.4807 31.5133 83.2146C34.0146 82.072 33.204 79.2311 33.0573 77.2779C32.9029 74.5913 33.6749 69.7971 32.1386 68.5156C30.5097 67.4116 27.908 68.7858 25.9625 68.9556C22.5734 70.1368 18.3506 69.3802 15.4555 71.1636C14.0428 72.7771 15.085 76.1894 15.0232 78.3355C14.892 82.4349 15 84.3031 16.0731 85.299ZM16.9378 72.4142C21.4154 71.7966 26.418 70.8702 30.9111 69.9901C31.081 70.8548 31.8298 81.3078 30.7258 81.439C27.6378 82.8518 21.0526 83.5852 17.8873 83.9403C16.3433 84.0175 17.0767 80.2269 16.9609 78.405C17.0922 76.7838 16.2121 73.5954 16.9378 72.4142Z" fill="#3D9CFB"/>
<path d="M20.8444 18.3814C19.9644 17.2697 18.6674 18.9218 18.0575 19.3619C16.1738 17.2852 14.0045 19.3619 16.6447 20.7515C14.1589 22.6815 16.884 24.2178 18.2968 21.8246C20.0724 23.9322 22.3885 21.9249 19.7559 20.4736C20.3195 20.0026 21.5701 19.3001 20.8444 18.3814Z" fill="#3D9CFB"/>
<path d="M14.2055 65.1187C14.2055 66.5083 15.8421 67.5351 17.1468 67.2572C22.5509 65.5897 34.8181 67.6355 32.587 58.5721C31.9925 56.009 34.2854 49.254 29.9776 49.447C14.5683 53.5232 13.0783 46.1737 14.2055 65.1187ZM30.3482 51.3384C30.9812 53.0986 30.3481 56.7424 30.6261 58.7188C30.5257 59.9 31.1356 61.8995 30.325 62.7409C26.4264 64.3699 20.6286 64.4857 16.7763 65.3581C15.5874 65.9602 16.1278 54.8279 15.9039 53.9555C20.0033 52.3729 26.0017 52.7512 30.3482 51.3384Z" fill="#3D9CFB"/>
<path d="M26.9744 16.714C23.3692 16.5133 21.3542 18.1962 23.4078 21.7938C24.697 22.975 28.2328 22.1952 28.7655 20.8365C29.1824 19.7711 28.6111 16.5982 26.9744 16.714ZM26.9744 20.0568C26.2936 20.34 25.5563 20.4616 24.8205 20.4119C24.683 19.9452 24.6078 19.4624 24.5966 18.976C25.2957 18.7912 26.0127 18.6824 26.7351 18.6517C26.9048 19.1054 26.9835 19.5881 26.9667 20.0722L26.9744 20.0568Z" fill="#3D9CFB"/>
<path d="M129.011 32.0152C128.968 32.2647 129.025 32.5211 129.169 32.729C129.314 32.937 129.534 33.0799 129.783 33.1269C132.508 33.1269 137.958 35.4429 139 33.3507C138.36 31.1891 132.747 32.185 130.091 31.22C129.843 31.1844 129.591 31.2478 129.388 31.3965C129.186 31.5453 129.051 31.7674 129.011 32.0152Z" fill="#3D9CFB"/>
<path d="M129.967 36.4389C132.145 35.9834 137.688 39.3339 138.552 36.5392C137.958 34.9334 135.896 35.9602 134.159 35.1573C132.561 35.057 129.527 33.428 128.995 35.4739C128.997 35.7305 129.1 35.9759 129.282 36.1567C129.465 36.3374 129.711 36.4389 129.967 36.4389Z" fill="#3D9CFB"/>
<path d="M138.352 28.9964C136.685 29.3747 130.408 26.7653 129.451 28.7185C129.821 30.9573 136.646 30.332 138.159 30.9187C138.414 30.9443 138.669 30.8676 138.867 30.7054C139.065 30.5433 139.191 30.309 139.217 30.0541C139.242 29.7992 139.166 29.5445 139.003 29.3462C138.841 29.1478 138.607 29.022 138.352 28.9964Z" fill="#3D9CFB"/>
<path d="M114.604 84.2646C139.247 90.3944 136.769 92.6486 137.363 71.4416C138.737 64.1307 127.79 66.3926 124.756 64.7637C115.546 62.8569 112.821 61.9768 113.107 73.0705C113.215 77.2008 110.829 81.6244 114.604 84.2646ZM134.329 86.3645C129.944 86.5884 124.586 85.6928 126.779 79.3083C128.917 76.0582 133.627 77.6254 135.124 80.0803C135.348 83.6702 134.777 86.2564 134.329 86.3645ZM114.597 79.3624C116.388 67.2496 111.648 63.4436 124.316 66.6551C134.09 69.8126 136.367 63.8064 135.186 77.2702C129.342 72.6382 121.792 78.0422 125.104 84.9903C119.947 83.2533 113.948 84.5811 114.612 79.3624H114.597Z" fill="#3D9CFB"/>
<path d="M119.561 44.6296C122.194 45.3476 127.636 45.2704 129.165 45.8494C129.937 45.9575 131.396 46.4361 131.589 45.2549C131.782 44.0738 127.768 43.7109 126.957 43.6414C124.556 43.5256 118.781 41.6805 118.465 42.9621C118.318 43.5488 118.365 44.3054 119.561 44.6296Z" fill="#3D9CFB"/>
<path d="M118.704 53.724C120.672 53.8089 120.75 54.2644 122.564 54.303C124 54.6196 124.417 52.373 122.873 52.3576C121.329 52.7359 117.862 50.8753 117.801 52.705C117.788 52.9592 117.875 53.2084 118.044 53.3989C118.213 53.5894 118.45 53.7062 118.704 53.724Z" fill="#3D9CFB"/>
<path d="M115.068 39.9746C114.157 45.0389 114.172 52.2418 114.242 57.7307C115.269 62.5944 125.992 61.4132 130.052 62.7179C133.086 62.8414 137.294 65.1343 138.004 61.1739C137.356 41.5031 146.118 42.1362 123.514 38.7857C121.205 38.6776 116.164 36.4696 115.068 39.9746ZM130.153 60.8188C128.254 59.2747 128.038 55.4147 128.771 54.1486C130.199 52.0024 134.878 51.2999 136.329 54.6967C135.711 61.4055 138.189 62.4245 130.153 60.7956V60.8188ZM137.101 43.9427C137.101 45.6565 136.615 49.4703 136.483 51.7091C130.508 47.6252 123.637 53.8244 127.466 60.4482C124.039 59.4755 118.357 60.0467 116.21 57.7307C116.133 52.4502 116.133 45.3786 116.982 40.4841C117.005 40.3327 117.087 40.1966 117.21 40.1055C117.333 40.0143 117.487 39.9756 117.639 39.9977C123.421 40.4841 130.917 42.059 135.912 43.1321C137.047 43.3714 137.062 43.5567 137.07 43.9195L137.101 43.9427Z" fill="#3D9CFB"/>
<path d="M125.181 49.5242C126.409 49.7326 126.725 47.7022 125.482 47.6096C122.217 47.3703 118.156 45.6719 117.87 47.3934C117.585 49.115 122.317 49.0224 125.181 49.5242Z" fill="#3D9CFB"/>
<path d="M98.763 34.0146C97.9803 33.9419 97.1941 33.9161 96.4084 33.9374C94.4783 33.9374 91.8226 33.1191 91.8226 34.5164C91.8226 36.956 96.9719 35.659 98.6703 35.9446C99.8438 36.1376 99.9596 34.1073 98.763 34.0146Z" fill="#3D9CFB"/>
<path d="M116.898 73.6728C118.797 73.5801 123.074 75.7649 123.915 73.6728C123.939 73.417 123.86 73.1623 123.697 72.9641C123.533 72.766 123.298 72.6405 123.043 72.6151C121.136 72.9085 117.067 70.5848 116.095 72.5225C116.068 72.6511 116.068 72.7838 116.094 72.9124C116.121 73.041 116.173 73.1629 116.248 73.2706C116.323 73.3783 116.42 73.4695 116.531 73.5387C116.643 73.6078 116.768 73.6535 116.898 73.6728Z" fill="#3D9CFB"/>
<path d="M125.065 112.713C121.977 113.879 121.977 113.593 120.433 117.113C118.418 121.884 114.635 130.353 114.18 132.963C112.551 137.518 129.674 130.299 132.415 129.288C137.471 127.42 136.344 120.503 133.75 120.201C139.564 116.928 141.038 106.753 125.065 112.713ZM131.705 124.841C131.705 128.107 120.688 131.504 120.178 130.045C120.178 129.535 121.136 126.401 122.772 125.204C123.892 124.795 132.886 120.433 131.728 124.857L131.705 124.841ZM133.179 116.735C133.017 119.916 124.641 122.031 123.49 121.305C123.22 120.858 124.417 117.376 126.053 116.179C127.258 115.469 134.831 112.196 133.202 116.751L133.179 116.735Z" fill="#3D9CFB"/>
<path d="M104.792 30.579C103.248 30.9728 92.8109 27.9388 92.2628 29.9074C92.3709 32.2234 103.133 31.8914 104.615 32.5091C104.858 32.5103 105.093 32.4202 105.274 32.2567C105.454 32.0931 105.566 31.8678 105.589 31.6255C105.611 31.3831 105.541 31.1411 105.394 30.9474C105.247 30.7536 105.032 30.6222 104.792 30.579Z" fill="#3D9CFB"/>
<path d="M97.2731 38.7933C96.5925 38.678 95.9008 38.6417 95.2119 38.6852C94.6329 38.7315 92.0081 38.2838 92.0081 39.4572C92.0081 41.696 95.6596 40.1752 97.1573 40.6847C97.374 40.6482 97.5719 40.5393 97.7188 40.376C97.8657 40.2126 97.9529 40.0043 97.9664 39.785C97.9798 39.5657 97.9186 39.3483 97.7927 39.1682C97.6668 38.9882 97.4837 38.856 97.2731 38.7933Z" fill="#3D9CFB"/>
<path d="M92.9113 11.943C92.5639 12.1746 92.0543 12.4448 91.4908 12.715C90.1475 10.2137 87.0981 11.3177 89.7152 13.6183C86.4341 14.923 88.3641 17.3008 90.9118 15.1623C91.9077 17.6559 94.7718 16.4284 92.6488 14.2822C94.4784 13.8962 95.2968 11.3254 92.9113 11.943Z" fill="#3D9CFB"/>
<path d="M145.956 59.8307C145.832 49.2234 145.716 39.2027 146.241 27.4836C146.697 17.1851 143.153 15.0003 134.538 13.7419C121.993 12.1979 108.49 10.2756 96.2462 8.4305C89.4989 7.38829 85.2914 6.88649 83.6162 8.5849C80.7366 16.2432 82.296 29.5295 81.9332 39.0946C82.5631 39.1136 83.1905 39.1833 83.8092 39.3031C83.9636 37.126 83.7243 34.1692 83.8092 33.9453C83.7011 29.1821 84.0408 23.7162 84.118 18.8217C96.4701 21.1377 137.695 26.1095 144.288 28.2171C143.447 48.1271 144.419 63.8143 144.064 83.5777C143.933 93.0271 142.976 94.0307 140.475 94.324C134.383 94.8644 117.955 89.3369 112.682 88.2638L112.289 88.3796C109.853 84.6603 106.894 81.3114 103.503 78.4361C103.503 78.4361 101.766 80.2735 99.9673 80.4819C99.5967 85.886 97.0568 87.0209 97.0568 87.0209C97.3282 88.8501 97.7359 90.6565 98.2766 92.4249C121.066 104.924 118.642 110.096 118.642 110.096L120.541 109.324C120.063 103.526 117.693 97.883 113.632 90.5489C113.601 90.5044 113.572 90.458 113.547 90.41C117.847 91.954 127.103 93.7141 128.91 94.4476C133.997 95.7059 136.97 96.5088 140.691 96.1923C149.53 96.9103 145.022 66.3928 145.956 59.8307ZM144.365 26.2484C140.158 25.3683 124.903 22.2958 109.417 20.6823C101.967 19.9103 87.6924 17.4707 84.1643 16.8685C84.2183 13.464 84.3341 10.6925 85.0289 9.92048C89.661 8.22978 101.326 11.5649 107.502 12.0203C115.315 13.271 126.2 14.5911 134.291 15.6411C142.049 16.7913 144.474 18.3894 144.365 26.2484Z" fill="#3D9CFB"/>
<path d="M121.476 76.8996C120.202 76.8379 116.396 75.5486 116.072 77.0154C116.373 79.3314 119.499 78.0499 120.958 78.7756C121.207 78.8442 121.473 78.8111 121.697 78.6837C121.922 78.5563 122.086 78.345 122.155 78.0962C122.224 77.8475 122.191 77.5816 122.063 77.3572C121.936 77.1328 121.724 76.9682 121.476 76.8996Z" fill="#3D9CFB"/>
<path d="M97.7205 12.3057C95.999 12.3057 95.4817 15.7103 96.0993 16.9378C96.0221 17.4859 98.5775 18.2425 99.6506 18.1189C101.92 18.3969 102.19 15.6176 102.229 14.2126C102.268 12.437 98.8168 12.352 97.7205 12.3057ZM99.9285 16.1658C99.2059 16.1893 98.4841 16.0981 97.79 15.8956C97.7633 15.3459 97.8393 14.7962 98.0139 14.2743C98.7747 14.3126 99.5299 14.4264 100.268 14.614C100.223 15.1338 100.109 15.6453 99.9285 16.1349V16.1658Z" fill="#3D9CFB"/>
<path d="M117.461 69.3802C120.333 69.3185 128.918 72.7384 130.053 70.461C129.582 68.4229 124.834 69.2335 122.024 68.2222C120.125 68.2222 117.538 66.4466 116.658 68.2685C116.637 68.3943 116.642 68.523 116.671 68.6471C116.7 68.7713 116.753 68.8884 116.828 68.9918C116.902 69.0952 116.997 69.1827 117.106 69.2494C117.214 69.3161 117.335 69.3605 117.461 69.3802Z" fill="#3D9CFB"/>
<path d="M149.53 103.549C147.677 100.23 128.2 106.576 121.167 108.529C120.866 99.8592 112.844 84.9363 104.499 78.6213C107.016 75.9733 105.974 68.8168 107.309 64.2388C108.544 60.0082 106.977 53.9093 103.449 50.196C94.185 40.2911 87.3296 38.006 72.0052 38.7239C66.3232 38.9864 51.933 42.1671 46.529 48.5516C42.7616 53.037 39.8279 57.7385 42.5531 67.929C43.688 72.1827 43.8887 77.8107 46.6139 79.2003C31.7605 85.6311 21.4465 97.2035 30.5253 112.103C15.3399 108.645 -4.83267 99.1875 7.83596 119.321C10.8468 124.224 13.3095 132.608 16.799 136.236C18.6981 138.22 24.9128 140.166 30.6025 141.787C34.1923 142.806 48.513 147.585 53.6932 146.898C54.3417 146.62 80.7521 138.081 78.6908 133.218C83.1376 135.711 100.948 142.482 101.851 142.574C107.757 143.254 121.661 138.29 125.984 137.17C137.773 133.735 139.787 133.001 144.103 122.363C146.782 116.797 152.973 104.924 149.53 103.549ZM104.754 71.2718C104.576 76.1895 102.808 78.2198 100.762 79.208V73.5646C102.253 73.1326 103.618 72.3459 104.738 71.2718H104.754ZM103.094 80.0109C106.375 82.0567 107.888 84.4268 110.297 87.7927C114.666 93.8993 118.827 102.121 119.19 107.433C117.778 104.507 113.323 99.8592 99.782 92.5174C98.7167 91.9384 98.6703 88.8735 98.2843 87.4299C99.7113 85.6983 100.569 83.5683 100.739 81.331C101.578 81.0039 102.365 80.5595 103.078 80.0109H103.094ZM76.9383 95.729C77.3853 94.2581 78.0516 92.8631 78.9147 91.591C80.8138 92.363 81.0377 92.4943 81.6321 92.5715C81.8574 92.5643 82.0732 92.4791 82.2426 92.3305C82.4121 92.1818 82.5246 91.979 82.5611 91.7566C82.5976 91.5342 82.5557 91.306 82.4425 91.111C82.3294 90.9161 82.1521 90.7665 81.9409 90.6878C81.9409 90.6878 80.8987 90.3403 79.1231 89.5761C76.4365 88.1401 76.645 85.2683 78.2507 83.9327C79.4782 83.1607 82.96 84.2492 87.3527 86.8432C89.7845 88.611 92.6332 85.6929 94.9107 85.8627C97.6127 86.6347 95.6827 92.2472 98.7707 94.1927C102.947 96.1536 117.083 104.229 117.847 109.633C111.81 111.578 111.154 112.906 108.676 118.372C98.9019 121.035 89.0048 117.214 77.4865 103.472C76.174 101.928 76.0891 99.7357 76.4597 97.6821C78.8452 98.5391 79.3779 100.106 80.644 98.8633C81.1998 97.1494 79.2003 97.0336 76.9383 95.729ZM67.0644 53.6314C75.9116 54.9515 80.1885 54.2567 83.6162 53.5619C93.0192 51.6473 99.4578 55.9165 98.6781 64.4935C98.0521 64.4701 97.4282 64.4083 96.8098 64.3083C95.8834 60.6258 90.1242 61.9073 86.6502 61.6757C82.5122 61.7606 79.5168 61.7606 79.4242 66.3927C77.3784 63.9686 72.6074 64.1693 70.5616 66.6938C70.3994 64.2156 69.7896 62.8337 68.7319 62.3319C68.4154 61.8301 63.9763 61.7143 60.0237 62.0308C57.0514 62.247 54.8589 61.9459 53.7395 64.7946C53.2223 64.7946 52.5583 64.7406 51.9716 64.6943C52.4966 57.3988 57.4297 52.8671 67.0644 53.6314ZM88.7809 72.2677C86.3954 72.2677 82.713 72.7231 81.8329 71.8353C81.3002 71.2718 81.4469 69.5193 81.3079 68.4153C80.6131 62.9109 83.9559 63.5054 88.364 63.5594C88.1084 66.4677 88.2486 69.3971 88.7809 72.2677ZM61.946 73.4102C57.3757 73.2713 55.2758 74.1822 55.1755 69.6351C55.0519 63.6135 56.6423 64.0149 61.7993 63.8451C61.3545 67.0219 61.404 70.2485 61.946 73.4102ZM51.4003 71.2255C51.9562 71.2795 53.23 71.2949 53.3535 71.2949C53.477 72.5533 53.7395 73.6496 54.5192 74.2517C57.476 76.12 67.8673 75.6491 69.8127 73.4797C69.4808 77.7566 74.0279 77.1699 76.9847 76.6218C77.2375 76.5767 77.4621 76.4331 77.6091 76.2224C77.756 76.0118 77.8133 75.7514 77.7682 75.4985C77.7232 75.2456 77.5796 75.021 77.3689 74.8741C77.1582 74.7271 76.8978 74.6699 76.645 74.7149C74.6069 75.0778 72.6614 75.2476 72.0901 74.5296C71.2718 73.4874 70.8549 67.1647 74.8848 66.5316C77.5868 66.0839 79.347 68.1915 79.3702 69.6892C79.3702 71.3567 79.6326 72.7772 80.6903 73.5492C82.2343 74.5991 87.1288 74.1668 89.6147 74.2131C93.9071 74.0278 96.0918 74.6686 96.7635 71.1251C97.4494 71.1351 98.1353 71.1016 98.817 71.0247C98.5082 76.3747 99.8901 81.2847 97.4429 85.3069C94.8103 81.5549 91.012 86.3414 88.364 85.1525C82.96 81.9564 79.208 80.9913 77.224 82.2883C74.576 84.0562 74.4679 88.6805 77.224 90.6106C77.1622 90.6955 77.1005 90.7958 77.0387 90.8885C64.3392 91.4906 48.4358 89.2981 51.4003 71.2255ZM45.2243 71.9975C46.3889 73.0629 47.8466 73.754 49.4086 73.9815C49.4086 75.6799 49.4086 77.3166 49.4935 78.7525C47.6252 77.9033 45.8959 76.4288 45.2397 71.9666L45.2243 71.9975ZM48.652 80.4895C48.9809 80.6279 49.3188 80.744 49.6633 80.8369C51.4853 90.6183 67.3423 93.7372 75.9116 92.8802C74.1282 96.3852 73.4257 101.882 75.9116 104.646C81.9718 112.134 88.3718 116.65 94.0692 119.028C78.7294 118.742 64.7329 119.298 50.4585 118.966C50.3581 112.482 51.3077 102.577 54.2336 95.7598C54.335 95.5231 54.3392 95.256 54.2453 95.0162C54.1514 94.7764 53.967 94.5832 53.7318 94.4783C51.9948 94.046 51.9639 96.7943 51.3695 97.8983C47.8954 93.3589 39.8743 89.1051 33.7677 90.1319C37.9571 85.8646 43.0331 82.5702 48.6366 80.4818L48.652 80.4895ZM29.2746 103.326C26.1866 86.4185 44.7148 90.9734 50.7055 100.33C49.236 106.432 48.5204 112.691 48.5748 118.966H44.2979C41.9818 115.106 39.3493 114.844 33.3199 112.875C31.362 109.985 29.9927 106.737 29.29 103.318L29.2746 103.326ZM52.9521 145.137C52.1801 145.909 23.0059 138.737 18.1345 134.839C15.7259 132.438 13.4099 125.891 11.449 122.039C9.80458 118.812 5.21114 110.999 5.72838 109.293C9.34138 107.309 37.6818 115.585 41.2407 118.125C44.3287 121.475 47.1697 130.299 49.6324 135.341C51.161 138.483 53.8167 144.404 52.9521 145.137ZM53.3535 138.907C52.1878 136.167 50.6052 132.955 49.3854 130.083C52.7745 131.303 59.5219 132.754 62.7257 134.584C61.475 135.518 57.2676 137.417 53.3535 138.892V138.907ZM54.9902 144.45C54.8712 143.153 54.5508 141.882 54.0406 140.683C74.5297 133.318 61.4673 132.09 48.3432 127.698C47.9186 126.686 47.4863 125.644 47.0694 124.672C52.7668 126.455 72.4067 129.134 76.7994 133.727C73.4797 138.189 59.3906 142.682 54.9902 144.435V144.45ZM76.2513 129.975C76.252 130.238 76.2964 130.499 76.3825 130.747C73.1246 128.292 50.1342 123.367 46.1275 122.448C45.8805 121.908 45.6334 121.383 45.3555 120.904C63.2661 121.128 79.0536 120.68 97.0337 120.997C88.9431 122.749 75.2013 126.3 76.2513 129.96V129.975ZM100.469 140.081C97.6667 138.822 79.486 132.932 78.1813 130.006C77.4093 126.771 103.465 121.614 107.749 120.534L106.599 123.359C95.7907 126.447 79.4937 128.562 101.118 136.584C100.723 137.704 100.504 138.878 100.469 140.065V140.081ZM101.758 134.762C96.887 133.001 92.6178 130.786 92.3862 129.906C94.4397 127.953 102.638 126.818 105.665 125.629C104.406 128.616 102.716 132.168 101.758 134.746V134.762ZM144.898 116.156C142.821 120.186 139.787 128.153 137.417 130.469C135.788 132.114 129.551 133.99 124.363 135.58C112.96 139.1 103.966 141.092 102.6 140.76C101.473 137.217 108.699 124.548 110.366 119.229C111.439 116.751 112.505 114.674 113.601 113.593C115.423 111.818 126.378 109.031 131.975 107.417C139.849 105.217 146.519 103.511 148.28 104.97C148.666 105.348 149.6 107.101 144.898 116.141V116.156Z" fill="#001434"/>
<path d="M73.1867 82.1029C75.5799 81.7014 78.1507 80.8676 80.3509 80.389C80.4784 80.37 80.6006 80.3247 80.7098 80.2561C80.819 80.1876 80.9128 80.0971 80.9853 79.9905C81.0578 79.8839 81.1075 79.7635 81.1312 79.6367C81.1549 79.51 81.1521 79.3798 81.1229 79.2542C80.4281 76.9381 74.9469 80.2114 72.9783 80.196C72.7465 80.2477 72.5419 80.3831 72.4037 80.5762C72.2655 80.7693 72.2033 81.0066 72.2291 81.2427C72.2549 81.4788 72.3669 81.6971 72.5435 81.8558C72.7202 82.0145 72.9492 82.1024 73.1867 82.1029Z" fill="#001434"/>
<path d="M59.329 59.6143C62.137 58.7575 65.1366 58.7575 67.9446 59.6143C68.1813 59.672 68.4311 59.6387 68.6445 59.5211C68.8578 59.4035 69.0193 59.2101 69.097 58.9792C69.1746 58.7482 69.1627 58.4965 69.0637 58.2739C68.9647 58.0513 68.7857 57.8739 68.5622 57.7769C65.3416 56.7942 61.9011 56.7942 58.6805 57.7769C58.4369 57.8629 58.2373 58.0422 58.1259 58.2753C58.0144 58.5084 58.0001 58.7762 58.0861 59.0199C58.1721 59.2635 58.3513 59.463 58.5844 59.5745C58.8175 59.686 59.0853 59.7003 59.329 59.6143Z" fill="#001434"/>
<path d="M80.227 57.005C80.227 57.005 84.3418 56.7657 86.5188 59.02C86.6969 59.2042 86.941 59.3102 87.1972 59.3145C87.4535 59.3189 87.701 59.2212 87.8853 59.0431C88.0695 58.865 88.1755 58.6209 88.1798 58.3647C88.1842 58.1084 88.0866 57.8609 87.9084 57.6767C85.0983 54.7739 80.2964 55.0673 80.0957 55.075C79.8398 55.0924 79.6012 55.2108 79.4326 55.404C79.2639 55.5973 79.1789 55.8497 79.1963 56.1056C79.2137 56.3616 79.3321 56.6001 79.5254 56.7688C79.7187 56.9374 79.971 57.0224 80.227 57.005Z" fill="#001434"/>
</svg>
